<svg xmlns="http://www.w3.org/2000/svg" version="1.1" xmlns:xlink="http://www.w3.org/1999/xlink" width="1400" height="1400"><svg id="SvgjsSvg1028" data-name="Слой 4" xmlns="http://www.w3.org/2000/svg" viewBox="0 0 1400 1400">
  <defs>
    <style>
      .uuid-2d7b4b2d-a564-4df4-8fee-adce3aa3c689 {
        fill: #fff;
      }

      .uuid-5e7f8448-ce8d-4ad3-b6b7-eb1813e36237 {
        fill: #303638;
      }
    </style>
  </defs>
  <rect class="uuid-5e7f8448-ce8d-4ad3-b6b7-eb1813e36237" width="1400" height="1400" rx="283.46" ry="283.46"></rect>
  <g>
    <path class="uuid-2d7b4b2d-a564-4df4-8fee-adce3aa3c689" d="m871.11,638.6c16.24,1.72,21.39-7,25.96-20.69,10.77-32.28-18.99-74.99-38.3-97.7-.26-.31-.54-.32-.82-.03-7.16,7.16-14.33,14.34-21.5,21.52-9.59,9.6-20.45,11.58-32.58,5.94-8.94-4.17,9.76-15.76,12.22-18.21,8.53-8.53,17.06-17.06,25.59-25.59.24-.24.24-.62,0-.85h0c-10.14-10.13-20.33-20.33-30.54-30.58-1.08-1.08-2.46-1.98-4.16-2.69-17.55-7.4-12.11-21.32.94-29.18,4.76-2.88,9.39-1.98,9.46,4.45,0,.35.14.69.39.95,15.88,16.46,28.18,28.61,36.91,36.44,1.17,1.05,3.09,1.85,5.74,2.39.37.08.69-.02.96-.3,14.63-15.28,25.63-26.31,32.99-33.09.79-.72,1.94-.95,3.46-.68.37.06.62.27.77.62,2.34,5.55,7.99,10.2,12.08,14.68.9,1,.83,2.54-.16,3.44-.15.14-.33.26-.51.36-1.32.69-2.75,1.14-3.91,2.28-11.64,11.56-23.24,23.16-34.81,34.81-.27.28-.25.54.06.77,14.08,10.2,28.74,19.44,43.97,27.7,13.21,7.17,27.59,13.78,41.56,16.27,8.05,1.43,20.75-.56,26.35,6.66,4.92,6.36-.6,20.49-6.51,24.78-17.25,12.51-46.36,5.84-64.17-1.76-.28-.12-.6,0-.72.29-.04.1-.06.22-.03.33,3.38,16.14,6.01,32.32,7.91,48.56,2.19,18.75-12.2,28.31-28.39,31.75-2.56.54-5.31.56-8.26.04-18-3.14-40.97-9.92-54.54-22.79-7.85-7.44,6.67-14.1,12.51-12.32.86.26,3.03,1.68,6.52,4.28,7.2,5.35,14.9,6.27,23.55,7.18Z"></path>
    <path class="uuid-2d7b4b2d-a564-4df4-8fee-adce3aa3c689" d="m541.73,891.99c6.83-6.81,13.61-13.68,20.35-20.6,9.66-9.9,20.49-11.92,32.52-6.05,7.06,3.46-2.73,11.04-6.1,13.38-10.97,7.6-21.14,19.94-30.5,29.63-.27.28-.27.56,0,.83,10.03,10.13,20.13,20.24,30.29,30.34,5.19,5.16,16.01,6.58,15.27,16.34-.54,7.19-18.82,26.86-21.39,9.91-.05-.39-.22-.72-.5-1-9.12-9.31-18.39-18.45-27.81-27.44-2.13-2.05-13.1-13.92-16.34-9.44-.82,1.13-1.26,1.72-1.32,1.79-9.44,10.02-19.2,19.71-29.28,29.05-1.11,1.03-2.39,1.5-3.83,1.43-.45-.02-.76-.25-.93-.68l-.86-2.26c-.14-.37-.35-.7-.62-.99l-10.72-11.56c-.74-.8-.69-2.05.11-2.79.08-.08.17-.14.26-.2,1.37-.9,2.64-1.89,3.81-2.97,11.75-10.99,23.27-22.21,34.55-33.68.28-.29.26-.55-.06-.79-20.06-14.8-41.44-27.33-64.12-37.6-11.15-5.04-22.82-7.67-35.01-7.89-10.32-.19-16.93-9.25-12.59-18.92,1.51-3.38,3.13-7.67,5.78-10.05,8.48-7.58,25.54-8.68,36.22-6.81,9.66,1.69,19.03,4.38,28.12,8.08.31.13.66-.02.79-.32.05-.12.06-.25.03-.37-2.65-12.1-4.89-24.33-6.73-36.71-2.55-17.17-4.13-27.89,12.05-36.7,6.18-3.36,11.8-5.32,16.88-5.89,10.74-1.2,64.3,16.61,61.52,30.16-.07.37-.29.7-.61.9-7.39,4.83-11.33,7.81-19.03,1.16-5.43-4.69-12.36-6.68-19.3-7.62-13.81-1.86-21.98-1.3-28.05,13.11-3.75,8.91-5.79,16.33-4.49,25.87,3.76,27.78,22.76,56.46,40.81,77.35.26.31.54.32.82.03Z"></path>
    <path class="uuid-2d7b4b2d-a564-4df4-8fee-adce3aa3c689" d="m265.07,1132.34c-.07.22.06.46.28.52.12.04.26.02.36-.06,19.28-13.17,38.77-9.26,56.93,3.27,36.69,25.3,24.03,73.23.81,101.95-14.75,18.24-33.43,32.66-53.96,43.73-9.68,5.22-16.51,8.53-20.49,9.92-26.46,9.29-56.54-7.23-73.08-27.08-14.1-16.92-13.31-39.65-1.21-57.35.28-.42.17-.61-.33-.56-38.91,3.86-76.37-1.78-112.75-16.2-.4-.16-.41-.35-.05-.58l19.16-11.61c.25-.14.52-.18.81-.11,30.14,7.33,92.03,19.63,117.72-3.79.24-.22.25-.58.04-.81,0,0-.01-.01-.02-.02l-56.4-56.4c-.29-.29-.37-.63-.24-1.03,7.52-22.71,26.7-37.51,47.92-46.66,22.08-9.53,42.45-6.54,61.11,8.95,15.79,13.1,18.79,35.06,13.37,53.9Zm-12.46,29.99c-1.38,20.18-21.93-4.96-20.76-11.3.17-.94.73-1.87,1.69-2.79,13.6-12.97,16.36-32.47,9.78-49.51-1.7-4.41-4.01-7.81-6.94-10.21-18.8-15.45-48.68,2.18-63.51,14.66-3.32,2.79-10.06,4.25-8.33,9.89.34,1.12,1.49,2.65,3.45,4.61,34.31,34.34,68.63,68.66,102.96,102.98,6.1,6.1-.81,23.64-9.8,14.69-14.9-14.84-29.8-29.71-44.7-44.6-.25-.25-.54-.31-.86-.17-15.7,6.81-39.86,23.92-33.03,43.34,4,11.37,20.45,25.17,31.25,33.3,7.61,5.73,13.08,7.83,22.11,6.82,12.96-1.45,24.39-5.69,34.27-12.71,25.97-18.45,56.52-46.13,57.5-80.92.22-8.03-2.34-20.72-8.97-26.29-21.23-17.8-46.78-8.88-65.66,7.27-.28.24-.44.55-.47.93Z"></path>
    <path class="uuid-2d7b4b2d-a564-4df4-8fee-adce3aa3c689" d="m1138.43,274.93c-13.52,8.92-27.89,10.01-42.89,3.74-43.03-18.03-44.69-63.1-22.88-97.69,16.23-25.74,41.73-44.54,68.62-57.78,8.47-4.17,15.61-6.64,21.4-7.42,22.38-3.01,45.83,10.74,60.68,26.49,16.24,17.24,17.25,40.46,4.39,59.83-.3.45-.18.64.35.58,37.78-4.14,75.94,3,111.27,16.81.77.3.8.66.1,1.08l-18.59,11.08c-.32.19-.67.25-1.03.16-27.96-6.98-91.18-20.86-115.89,2.51-.35.33-.36.67-.02,1.01l56.22,56.22c.28.28.38.7.25,1.07-4.7,13.85-13.18,25-25.45,33.45-20.36,14.02-42.18,23.62-66.45,12.61-26.9-12.2-36.43-35.42-29.51-63.35.15-.63-.05-.77-.59-.41Zm33.56-18.33c.12.78-.15,1.57-.72,2.12-14.45,14.1-17.5,33.41-9.84,51.49,1.97,4.66,5.06,8.23,9.26,10.73,19.38,11.52,45.05-3.7,59.68-15.65,3.61-2.95,13.02-5.93,6.65-12.34-35.34-35.59-70.73-71.13-106.18-106.62-.26-.26-.4-.58-.42-.95-.15-3.88-.9-7.83,1.56-11.21,4.2-5.73,7.89-2.88,11.89,1.13,14.25,14.23,28.5,28.47,42.77,42.74.27.27.59.33.94.17,20.85-9.11,47.17-30.56,24.37-54.5-10.35-10.87-26.93-28.76-42.17-28.6-25.88.28-49.17,19.93-66.81,37.52-17.72,17.66-33.03,46.54-22.99,71.98,1.31,3.33,3.18,6.15,5.6,8.45,19.73,18.76,46.99,8.76,65-6.2.3-.26.47-.58.51-.97.43-4.49,2.47-11.2,8.44-6.3,5.12,4.2,11.4,10.21,12.44,17.03Z"></path>
    <path class="uuid-2d7b4b2d-a564-4df4-8fee-adce3aa3c689" d="m251.27,1025.78l104.35,104.35c.36.36.35.94,0,1.3h0l-11.2,11.04c-.2.2-.41.2-.61,0l-116.89-116.89c-.26-.26-.26-.52,0-.77l149.39-149.47c.34-.34.88-.34,1.22,0h0s10.88,10.88,10.88,10.88c.65.65.64,1.29-.03,1.93-10.65,10.07-21.13,20.31-31.46,30.71-35.16,35.45-70.37,70.84-105.64,106.17-.25.25-.25.49,0,.74Z"></path>
    <path class="uuid-2d7b4b2d-a564-4df4-8fee-adce3aa3c689" d="m790.64,710.61c-.26-.07-.52.09-.58.34,0,.02,0,.04-.01.06-2.48,22.22-10.8,50.38-30.09,63.83-7.18,5-16.18,9.11-27.01,12.32-45.52,13.49-89.46-22.04-111.76-57.63-9-14.36-42.24-18.12-57.65-18.76-4.85-.19-8.15-1.85-11.23-5.11-.28-.29-.38-.71-.27-1.1,1.29-4.7,3.64-8.62,7.06-11.74,3.6-3.29,7.85-2.58,12.36-1.91,14.11,2.08,28.08,4.55,41.92,7.41.26.05.51-.12.56-.38.02-.09,0-.18-.02-.26-12.62-33.81,7.87-62.08,36.14-78.51,3.16-1.84,6.5-3.12,10.01-3.83,20.53-4.16,38.56.35,57.06,8.81,17.5,8.01,32.63,16.57,45.38,30.9,12.07,13.55,29.54,44.21,50.51,42.8,9.46-.64,18.05-1.17,27.45.81,4.81,1.01,13.22,6.52,8.8,12.14-7.68,9.79-48.05,2.83-58.65-.19Zm-164.24-37.05c-1.87,16.98.18,35.76,6.92,51.16,2.79,6.36,9.17,6.34,14.78,4.73,8.24-2.36,16.13-5.6,23.67-9.71,28.43-15.47,55.46-34.42,81.17-53.98.28-.22.3-.45.03-.69-28.77-26.79-87.85-59.03-118.26-14.02-4.65,6.9-7.42,14.4-8.32,22.51Zm33.22,70.61c17.66,30.26,48.85,40.75,80.76,26.26,32.97-14.97,38.85-49.64,29.18-81.19-7.89-25.76-100.59,46.64-109.75,53.93-.35.28-.42.61-.19,1Z"></path>
    <path class="uuid-2d7b4b2d-a564-4df4-8fee-adce3aa3c689" d="m895.57,381.26l104.95,104.95c.15.15.15.38,0,.53h0l-11.55,11.55c-.15.15-.38.15-.53,0h0s-117.26-117.26-117.26-117.26c-.15-.15-.15-.38,0-.53h0l149.72-149.77c.15-.15.38-.15.53,0h0s11.73,11.57,11.73,11.57c.15.15.15.38,0,.53h0s-137.59,137.9-137.59,137.9c-.15.15-.15.38,0,.53h0Z"></path>
    <path class="uuid-2d7b4b2d-a564-4df4-8fee-adce3aa3c689" d="m506.36,1028.74l-92.74-92.74c-.14-.14-.14-.36,0-.5l11.64-11.64c.14-.14.36-.14.5,0l104.96,105.09c.14.14.14.36,0,.5l-149.72,149.72c-.14.14-.36.14-.5,0l-11.78-11.78c-.14-.14-.14-.36,0-.5l137.65-137.65c.14-.14.14-.36,0-.5Z"></path>
    <path class="uuid-2d7b4b2d-a564-4df4-8fee-adce3aa3c689" d="m1150.75,384.32l-92.71-92.71c-.15-.15-.15-.38,0-.53l11.56-11.56c.15-.15.38-.15.53,0l105.01,104.97c.15.15.15.38,0,.53h0s-149.73,149.73-149.73,149.73c-.15.15-.38.15-.53,0h0s-11.75-11.75-11.75-11.75c-.15-.15-.15-.38,0-.53h0l137.61-137.61c.15-.15.15-.38,0-.53Z"></path>
    <path class="uuid-2d7b4b2d-a564-4df4-8fee-adce3aa3c689" d="m363.23,1067.37c-6.47,6.84-10.75,18.42-3.21,26.19.29.3.29.78,0,1.07l-3.23,3.23c-.27.27-.54.27-.81,0l-39.77-39.77c-.34-.34-.34-.68,0-1.01l2.93-2.93c.31-.31.64-.34,1.01-.09,9.5,6.53,18.82,4.32,26.83-3.57,18.92-18.61,37.75-37.33,56.47-56.15,8.41-8.46,9.16-17.1,2.25-25.93-.24-.31-.23-.6.05-.87l2.99-2.99c.27-.27.54-.27.81,0l39.87,39.87c.27.27.27.54,0,.81l-2.99,2.99c-.31.31-.65.35-1.01.11-12.54-8.08-20.83-2.3-30.71,7.51-17.18,17.05-34.83,33.94-51.47,51.54Z"></path>
    <path class="uuid-2d7b4b2d-a564-4df4-8fee-adce3aa3c689" d="m1007.64,422.97c-6.47,6.84-10.75,18.42-3.21,26.19.29.3.29.78,0,1.07l-3.23,3.23c-.27.27-.54.27-.81,0l-39.77-39.77c-.34-.34-.34-.68,0-1.01l2.93-2.93c.31-.31.64-.34,1.01-.09,9.5,6.53,18.82,4.32,26.83-3.57,18.92-18.61,37.75-37.33,56.47-56.15,8.41-8.46,9.16-17.1,2.25-25.93-.24-.31-.23-.6.05-.87l2.99-2.99c.27-.27.54-.27.81,0l39.87,39.87c.27.27.27.54,0,.81l-2.99,2.99c-.31.31-.65.35-1.02.11-12.54-8.08-20.83-2.3-30.71,7.51-17.18,17.05-34.83,33.94-51.47,51.54Z"></path>
  </g>
</svg><style>@media (prefers-color-scheme: light) { :root { filter: none; } }
@media (prefers-color-scheme: dark) { :root { filter: none; } }
</style></svg>